<svg xmlns="http://www.w3.org/2000/svg" fill-rule="evenodd" stroke-linecap="round" stroke-linejoin="round" stroke-miterlimit="1.5" clip-rule="evenodd" viewBox="0 0 4000 4000"><path fill="#cecfcb" stroke="#000" stroke-width="87.935" d="M2096.62 1246.267s243.627-292.738 662.393-298.39c429.587-5.797 587.762 129.858 727.394 273.938 146.363 151.027 297.428 495.774 319.069 799.754 25.252 354.725-143.984 972.733-212.847 1168.517l-1605.125-371.989Z"/><path fill="#cecfcb" stroke="#000" stroke-width="90.351" d="M846.414 2043.736s36.12 762.804 541.73 1157.505c505.624 394.701 686.228 58.122 825.785-229.202s707.162-1531.389 49.256-2068.734C1869.14 581.469 1598.235 903.305 1598.235 903.305Z"/><path fill="#cecfcb" stroke="#000" stroke-width="90.351" d="M1055.882 781.151s476.137-130.1 666.591 35.103 124.551 873.695-134.631 1219.272c-177.32 236.427-499.009 534.62-783.903 212.16-243.7-275.83-173.1-610.424-174.02-859.526-.919-249.085 425.962-607.009 425.962-607.009"/><path fill="#cecfcb" stroke="#000" stroke-width="90.351" d="M578.825 1256.747s-15.335 409.363 190.356 479.42c205.692 70.058 367.693-202.39 372.077-441.609 4.367-239.217 88.939-458.208 0-558.82-90.318-102.173-251.581-113.846-372.077-67.874L578.825 1019.68Z"/><path fill="#cecfcb" d="M577.544 655.287s122.991-28.7 191.637 47.614c90.22 100.268-163.43 320.867-190.356 553.846-14.333 124.025-225.114-86.674-144.122-237.067 50.487-138.638 98.216-260.792 142.841-364.393"/><g clip-path="url(#a)" transform="translate(-1328.58 -1172.75)scale(1.64185)"><path d="M1130.67 1332.96s10.39 9.22 26.19 28.9c5.58 6.94 11.3 14.93 18.06 24.29 2.78 3.86 5.58 7.88 8.72 12.03 2.86 3.79 5.84 7.7 9.06 11.66 2.19 2.7 4.54 5.36 6.98 8.07 5.42 6.05 11.07 12.09 17.03 18.76 11.75 13.13 23.89 26.32 35.96 43.29-2.37-12.79-4.84-23.98-8.24-35.26-2.48-8.21-5.25-15.56-8.34-22.88-3.35-7.91-6.91-15.11-10.91-21.9-2.86-4.84-5.97-9.32-9.24-13.44-2.61-3.3-5.36-6.34-8.19-9.12-7.44-7.32-14.74-13.38-21.98-18.42-12.32-8.56-23.03-13.99-32.15-18-14.58-6.41-22.95-7.98-22.95-7.98m45.404-80.275s11.565 7.695 29.934 25.001c6.486 6.102 13.256 13.224 21.246 21.56 3.287 3.438 6.616 7.032 10.3 10.708 3.356 3.358 6.848 6.818 10.585 10.295 2.542 2.371 5.237 4.68 8.029 7.027 6.204 5.243 12.635 10.443 19.46 16.225 13.453 11.38 27.3 22.764 41.601 37.902-4.116-12.34-8.11-23.08-13.037-33.782-3.591-7.788-7.35-14.685-11.423-21.507-4.412-7.37-8.933-14.01-13.834-20.181a119 119 0 0 0-11.01-12.033 98 98 0 0 0-9.372-7.9c-8.38-6.22-16.449-11.213-24.316-15.204-13.386-6.774-24.744-10.67-34.33-13.38-15.327-4.333-23.833-4.73-23.833-4.73m37.017-86.667s11.565 7.694 29.935 25c6.486 6.102 13.256 13.224 21.245 21.56 3.288 3.438 6.617 7.032 10.3 10.708 3.357 3.358 6.849 6.819 10.586 10.295 2.542 2.372 5.237 4.681 8.029 7.028 6.204 5.242 12.635 10.443 19.46 16.224 13.453 11.38 27.3 22.764 41.6 37.902-4.115-12.34-8.109-23.08-13.036-33.782-3.591-7.788-7.351-14.684-11.424-21.507-4.411-7.37-8.933-14.01-13.833-20.18a119 119 0 0 0-11.01-12.034 98 98 0 0 0-9.372-7.9c-8.381-6.22-16.45-11.213-24.316-15.203-13.386-6.774-24.744-10.671-34.33-13.381-15.327-4.333-23.834-4.73-23.834-4.73"/></g><path fill="none" stroke="#000" stroke-width="90.351" d="M577.544 655.287s122.991-28.7 191.637 47.614c90.22 100.268-163.43 320.867-190.356 553.846-14.333 124.025-225.114-86.674-144.122-237.067 50.487-138.638 98.216-260.792 142.841-364.393"/><path fill="#cecfcb" d="M266.363 673.347s153.564-123.139 311.181-18.06c0 0 24.628 237.97-142.84 364.393 0 0-52.655-4.827-168.341-346.333"/><g clip-path="url(#b)" transform="translate(-1328.58 -1172.75)scale(1.64185)"><path d="M1062.707 1204.245s11.566 7.695 29.935 25c6.486 6.103 13.256 13.225 21.246 21.56 3.287 3.439 6.616 7.033 10.3 10.709 3.356 3.358 6.848 6.818 10.585 10.295 2.542 2.371 5.237 4.68 8.029 7.027 6.204 5.242 12.635 10.443 19.46 16.225 13.453 11.379 27.3 22.763 41.601 37.901-4.116-12.34-8.11-23.08-13.037-33.782-3.591-7.788-7.35-14.684-11.423-21.506-4.412-7.371-8.934-14.01-13.834-20.181a119 119 0 0 0-11.01-12.033 98 98 0 0 0-9.372-7.9c-8.381-6.221-16.449-11.213-24.316-15.204-13.386-6.774-24.744-10.67-34.33-13.381-15.327-4.332-23.834-4.73-23.834-4.73"/></g><path fill="none" stroke="#000" stroke-width="90.351" d="M266.363 673.347s153.564-123.139 311.181-18.06c0 0 24.628 237.97-142.84 364.393 0 0-52.655-4.827-168.341-346.333"/><path d="M678.863 1312.947s17.059 15.138 43 47.45c9.162 11.394 18.553 24.513 29.652 39.88 4.564 6.338 9.162 12.938 14.317 19.752 4.696 6.222 9.588 12.642 14.875 19.144 3.596 4.433 7.454 8.8 11.46 13.25 8.9 9.933 18.176 19.85 27.961 30.8 19.292 21.558 39.224 43.214 59.041 71.077-3.891-21-7.947-39.372-13.529-57.892-4.072-13.48-8.62-25.547-13.693-37.566-5.5-12.987-11.345-24.808-17.913-35.956a195 195 0 0 0-15.17-22.067 161 161 0 0 0-13.447-14.973c-12.215-12.019-24.2-21.968-36.088-30.243-20.228-14.055-37.812-22.97-52.785-29.554-23.939-10.524-37.68-13.102-37.68-13.102M857.662 770.87s19.51 11.812 50.855 38.914c11.067 9.555 22.67 20.764 36.36 33.877 5.632 5.41 11.345 11.073 17.645 16.845 5.74 5.273 11.711 10.705 18.084 16.146 4.337 3.712 8.92 7.311 13.663 10.965 10.544 8.165 21.458 16.246 33.058 25.252 22.864 17.723 46.376 35.428 70.894 59.259-7.615-19.953-14.918-37.293-23.75-54.502-6.437-12.524-13.087-23.573-20.245-34.479-7.753-11.782-15.635-22.355-24.105-32.135a195 195 0 0 0-18.903-18.968 161 161 0 0 0-15.927-12.302c-14.183-9.618-27.767-17.242-40.952-23.237-22.431-10.174-41.335-15.771-57.25-19.546-25.445-6.033-39.427-6.09-39.427-6.09m22.508 1090.457s13.43 24.053 43.083 57.153c19.899 22.214 46.366 47.991 81.042 72.635 21.738 15.434 46.546 29.931 74.441 42.508a327 327 0 0 0 34.446 13.282c15.187 4.877 31.13 8.916 47.778 11.838 23.232 4.105 47.58 6.321 73.21 6.535 23.413.18 47.433-1.133 72.603-4.696 33.641-4.778 67.907-13.086 104.356-25.219-37.516 2.775-71.962 1.757-105.095-1.034-23.889-2.02-46.25-5.336-67.973-9.392-23.15-4.318-44.773-10.064-65.608-16.024-14.744-4.203-28.864-8.8-42.622-13.2-22.379-7.176-43.526-14.334-63.195-22.38-14.564-5.943-28.306-11.837-41.424-17.912-92.666-42.901-145.041-94.094-145.041-94.094m393.043-469.57s25.892 22.773 61.487 65.182c11.247 13.38 22.789 28.551 35.89 45.233 7.455 9.506 15.073 19.554 23.594 29.586 11.822 13.923 25.006 27.5 37.697 43.164 8.653 10.672 17.37 21.065 26.09 32.739 12.625 16.894 24.709 33.608 36.268 53.36-2.923-23.298-6.847-44.15-12.708-64.968-4.22-14.99-9.277-28.634-14.99-42.147-6.108-14.382-12.807-27.632-20.392-40.11a221 221 0 0 0-17.289-24.496 189 189 0 0 0-15.204-16.567c-13.512-13.053-27.024-24.053-40.455-33.264-22-15.055-41.768-25.087-58.515-32.558-25.794-11.509-41.474-15.154-41.474-15.154m32.837-213.441s44.856 27.354 105.342 73.03c20.572 15.515 42.458 33.083 65.74 51.932 13.906 11.246 28.026 23.084 42.753 34.758 21.213 16.845 43.247 33.379 64.033 52.161 14.76 13.332 29.126 26.664 42.82 41.31 20.85 22.329 39.798 45.43 55.69 71.896-8.06-30.785-19.455-59.451-34.347-87.199-10.114-18.815-21.607-36.334-34.249-53.343-12.773-17.207-26.483-33.314-41.243-48.27a374 374 0 0 0-31.277-28.323c-8.275-6.715-16.797-12.921-25.433-18.668-21.393-14.235-42.754-26.384-63.523-36.597-32.492-15.991-62.193-27.123-86.673-35.464-36.597-12.461-59.632-17.223-59.632-17.223m-.001-216.725s55.856-2.413 127.852 20.015c10.195 3.185 20.555 6.83 31.441 10.754 14.678 5.287 29.537 11.953 45.134 19.079 9.589 4.383 19.49 8.718 29.521 13.643 14.284 7.028 28.88 14.35 43.558 23.627 13.841 8.75 27.6 18.076 41.572 29.323 19.423 15.614 38.42 32.706 57.3 54.312-11.246-27.402-23.56-50.798-37.992-72.11-11.017-16.254-22.854-30.177-35.382-43.016-13.84-14.186-28.305-26.155-43.361-36.35-10.803-7.323-21.935-13.431-33.149-18.537a202.5 202.5 0 0 0-26.68-9.95c-22.477-6.633-44.232-10.31-64.82-11.526-26.073-1.527-49.19.329-69.303 3.448-41.03 6.37-65.69 17.289-65.69 17.289m683.009 485.989s35.4 22.82 86.871 55.642c17.683 11.263 36.745 23.527 57.416 35.923 14.054 8.44 28.502 17.075 43.542 25.006 14.793 7.782 30.046 14.645 45.085 21.836 23.626 11.28 46.382 21.788 67.595 33.412 24.874 13.61 46.58 26.532 63.95 41.62-11.723-20.67-27.73-41.374-48.024-62.504-11.887-12.38-24.759-24.12-38.813-35.842-13.316-11.115-27.173-21.787-41.884-31.704a370 370 0 0 0-29.734-18.093c-7.667-4.187-15.499-7.98-23.363-11.46a635 635 0 0 0-56.595-21.854c-28.536-9.506-54.05-15.958-75.164-21.097-31.524-7.684-50.881-10.886-50.881-10.886M1430.29 2527.918c11.87 18.98 23.478 37.155 36.137 55.232 19.308 27.616 38.994 53.754 60.518 78.841 16.96 19.768 34.709 38.42 53.328 56.2 8.028 7.668 16.303 15.04 24.84 22.051a533 533 0 0 0 35.383 26.647c18.356 12.659 37.188 24.135 56.463 35.103 19.39 11.017 38.78 21.147 58.86 30.67 30.145 14.284 60.256 26.417 91.5 38.058-29.782-21.36-57.513-43.805-85.852-67.119-22.23-18.29-43.706-36.876-65.51-55.938-12.855-11.246-25.563-22.592-38.6-33.79a1124 1124 0 0 0-26.187-21.836c-13.25-10.721-26.713-21.18-40.16-31.852a8698 8698 0 0 0-40.438-31.95c-40.768-32.05-80.944-64-120.282-100.317m252.139-281.1c11.87 18.98 23.478 37.155 36.137 55.232 19.308 27.616 38.994 53.754 60.519 78.842 16.96 19.767 34.708 38.419 53.327 56.2 8.029 7.668 16.303 15.04 24.841 22.05a533 533 0 0 0 35.382 26.647c18.356 12.66 37.188 24.136 56.463 35.103 19.39 11.017 38.78 21.147 58.86 30.67 30.145 14.284 60.257 26.417 91.501 38.058-29.783-21.36-57.514-43.804-85.852-67.119-22.231-18.29-43.706-36.876-65.51-55.938-12.856-11.246-25.564-22.591-38.6-33.789a1124 1124 0 0 0-26.188-21.837c-13.25-10.72-26.713-21.18-40.16-31.851a8698 8698 0 0 0-40.438-31.95c-40.767-32.05-80.944-64-120.282-100.318m184.804-340.201c14.628 16.946 28.873 33.137 44.142 49.07 23.296 24.347 46.74 47.176 71.84 68.685 19.778 16.949 40.165 32.674 61.278 47.406 9.105 6.352 18.408 12.375 27.915 18.001a533 533 0 0 0 39.034 20.937c20.072 9.71 40.435 18.178 61.158 26.076 20.844 7.929 41.553 14.982 62.851 21.33 31.971 9.516 63.581 16.913 96.236 23.65-32.694-16.566-63.524-34.516-95.088-53.233-24.761-14.684-48.821-29.775-73.278-45.287-14.422-9.154-28.712-18.427-43.304-27.504a1124 1124 0 0 0-29.213-17.585c-14.73-8.574-29.632-16.856-44.55-25.351a8698 8698 0 0 0-44.84-25.406c-45.18-25.453-89.761-50.9-134.18-80.79m121.826-774.272s33.035 15.778 81.371 37.171a728 728 0 0 0 37.385 15.384c5.27 2.003 10.64 3.891 16.156 5.533 7.208 2.118 14.547 3.94 22 5.599 11.28 2.528 22.38 4.318 33.691 6.633 11.707 2.397 22.674 4.433 33.987 7.044 18.7 4.301 35.168 8.225 51.258 14.58-11.64-13.645-24.283-25.876-39.864-38.24-9.703-7.7-19.587-14.366-30.44-21.048-10.524-6.485-21.097-12.314-32.344-17.453a193 193 0 0 0-22.641-8.636c-5.845-1.823-11.723-3.235-17.585-4.351-14.612-2.758-28.535-4.45-41.965-5.27-21.394-1.314-39.339-.674-54.641.033-23.232 1.083-36.367 3.02-36.367 3.02Z"/><circle cx="1687.57" cy="1350.34" r="504.608" fill="#bfbfec" fill-opacity=".71" transform="translate(-1026.48 -1159.62)scale(1.64185)"/><use width="1061.95" height="1061.95" x="1221.99" y="992.931" href="#c" transform="translate(-1133.74 -1444.51)scale(1.64177)"/><path d="M1744.26 183.773c-482.178 0-873.661 391.474-873.661 873.67 0 482.178 391.483 873.662 873.662 873.662 482.195 0 873.662-391.484 873.662-873.663 0-482.195-391.467-873.669-873.662-873.669m0 90.345c432.333 0 783.328 350.992 783.328 783.324 0 432.316-350.995 783.312-783.327 783.312-432.316 0-783.311-350.996-783.311-783.312 0-432.332 350.995-783.324 783.31-783.324"/><path fill="#c48c00" stroke="#000" stroke-width="90.351" d="M1153.178 1637.738c67.545 68.778 146.995 125.865 234.965 167.847L554.033 3262.4l-249.34-142.759 848.485-1481.919Z"/><path d="M779.016 1096.223s16.583 13.578 46.727 53.41c3.497 4.613 6.978 9.325 11.198 14.365 5.368 6.404 10.787 13.496 17.518 20.49 4.006 4.171 8.57 8.079 13.365 12.118 6.83 5.762 14.12 10.967 21.984 17.042 7.421 5.73 14.645 10.968 22.888 17.125 11.624 8.685 22.624 16.254 35.43 26.351-4.974-15.81-9.128-28.716-14.628-42.376-4.04-9.966-8.078-18.422-12.61-27.107-4.942-9.473-9.85-17.781-15.384-25.613a130.4 130.4 0 0 0-12.658-15.302 102 102 0 0 0-11.165-9.95c-10.426-8.028-20.146-14.218-29.685-19.127-13.89-7.142-25.087-11.28-35.546-14.416-25.53-7.65-37.434-7.01-37.434-7.01m1881.21 125.015c33.398-17.524 71.365-28.146 112.16-33.238 54.56-6.803 113.153-2.07 171.26 12.669 27.365 6.93 54.306 16.301 80.683 27.703 25.818 11.157 50.732 24.612 74.54 40.08 15.65 10.165 30.7 21.295 45.222 33.214 14.376 11.792 28.365 24.17 41.218 37.94 30.674 31.199 58.736 58.616 85.542 81.998 54.702 47.707 101.791 80.39 144.498 103.637 69.23 37.713 125.544 49.9 184 58.35-54.89-17.55-106.594-39.061-168.172-85.336-37.306-28.053-77.422-65.402-124.715-116.452-23.478-25.352-48.871-53.65-75.97-86.327-14.533-16.62-30.049-32.2-46.83-46.088-16.762-13.874-34.64-26.227-53.277-37.097-27.748-16.195-57.067-29.365-87.282-39.25-30.131-9.846-60.915-16.773-91.83-20.38-63.636-7.421-126.716-2.65-183.219 14.262-40.554 12.15-77.049 30.339-107.828 54.315m-5.003 392.157s56.843-16.74 139.978-23.967c59.675-5.205 132.324-4.39 207.712 10.947 52.696 10.703 106.095 29.351 157.57 59.127 23.428 13.558 46.528 29.171 68.986 47.657 20.972 17.245 41.787 36.334 61.225 59.012 60.145 67.203 113.59 118.612 162.577 157.132 78.643 61.835 142.81 91.235 194.19 107.763-39.986-20.084-86.828-50.985-141.793-102.574-28.03-26.3-57.64-57.969-89.927-96.179-25.667-30.395-52.883-64.625-81.351-104.124-16.042-21.65-32.882-41.229-50.723-58.62-19.14-18.65-39.251-34.964-60.145-48.75-44.62-29.45-92.103-48.881-139.57-60.53-60.756-14.929-121.354-17.523-177.164-13.102-142.716 11.307-251.565 66.208-251.565 66.208m-8.538 259.436c38.547-1.223 82.463-3.458 130.478-2.594 58.47 1.06 121.87 7.897 187.837 29.4 22.865 7.456 45.84 16.789 69.222 28.063 31.52 15.19 63.071 34.719 95.186 58.865a814 814 0 0 1 48.766 39.646c15.291 13.444 30.973 27.622 46.404 43.546 37.201 37.084 68.596 67.937 96.485 93.193 43.117 39.075 76.64 65.44 105.578 84.333 61.46 40.136 100.68 45.862 166.74 59.241-60.974-23.217-97.205-35.062-150.401-82.441-25.01-22.287-53.18-52.437-90.13-94.955-24.447-28.111-52.68-61.182-85.546-101.416-15.666-18.518-31.301-35.649-47.421-51.018-17.591-16.772-35.511-31.635-53.634-44.638-36.513-26.219-73.448-45.601-109.882-59.747-26.794-10.393-53.258-17.98-79.41-23.037-59.269-11.453-115.688-11.47-168.149-6.037-60.99 6.298-115.437 19.856-162.123 29.596m-28.161 339.473c38.187-5.617 81.603-12.852 129.42-17.474 58.23-5.622 121.967-6.065 189.796 7.778 23.511 4.801 47.328 11.454 71.754 19.991 32.926 11.5 66.339 27.31 100.797 47.644a803 803 0 0 1 52.638 33.84c16.611 11.618 33.688 23.92 50.7 37.986 40.873 32.615 75.32 59.697 105.694 81.617 46.963 33.918 83.054 56.298 113.802 71.773 65.306 32.878 104.892 34.093 171.96 39.849-63.046-16.116-100.303-23.753-158.156-64.775-27.2-19.297-58.369-46.05-99.564-84.094-27.252-25.15-58.79-54.8-95.685-91.039-17.517-16.618-34.857-31.861-52.495-45.297-19.247-14.663-38.62-27.391-58-38.247-39.048-21.893-77.797-36.942-115.498-46.842-27.724-7.272-54.827-11.791-81.353-13.833-60.115-4.618-116.197 1.807-167.771 13.196-59.961 13.223-112.657 32.916-158.039 47.927"/><g transform="matrix(1.47294 0 0 1.63153 -995.355 -1017.22)"><ellipse cx="2661.52" cy="2514.75" fill="#cecfcb" rx="472" ry="380"/><clipPath id="d"><ellipse cx="2661.52" cy="2514.75" rx="472" ry="380"/></clipPath><g clip-path="url(#d)"><use width="888.448" height="582" x="2125.3" y="2248.27" href="#e" transform="matrix(1.06187 0 0 1 -67.269 -113.517)"/></g><ellipse cx="2661.52" cy="2514.75" fill="none" stroke="#000" stroke-width="56.67" rx="472" ry="380"/></g><defs><clipPath id="a"><path d="M1160.96 1113.4s74.91-17.48 116.72 29c54.95 61.07-99.54 195.43-115.94 337.33-8.73 75.54-137.11-52.79-87.78-144.39 30.75-84.44 59.82-158.84 87-221.94"/></clipPath><clipPath id="b"><path d="M971.429 1124.4s93.531-75 189.531-11c0 0 15 144.94-87 221.94 0 0-32.07-2.94-102.531-210.94"/></clipPath></defs></svg>